# xmcd
#
# Track frame offsets: 
#        150
#        14477
#        28052
#        47617
#        64402
#        84517
#        103112
#        121562
#        137225
#        152702
#        166207
#        170085
#        183600
#        190037
#        203650
#        209092
#        224775
#
# Disc length: 3159 seconds
#
# Revision: 3
# Processed by: cddbd v1.4PL0 Copyright (c) Steve Scherf et al.
# Submitted via: ExactAudioCopy v0.90b2
#
DISCID=fd0c5511
DTITLE=Blues Etílicos - Dente de Ouro
DYEAR=1996
DGENRE=Blues
TTITLE0=It's My Soul
TTITLE1=O Sol Também Me Levanta
TTITLE2=Cachorrada
TTITLE3=Dente de Ouro
TTITLE4=Dromedário
TTITLE5=Misty Mountain
TTITLE6=Texas Frogs
TTITLE7=It Ain't Easy
TTITLE8=William's Influence
TTITLE9=Canceriano Sem Lar (Clínica Tobias Blues)
TTITLE10=Albert's Mix
TTITLE11=Águas Barrentas
TTITLE12=Mambo Chutney
TTITLE13=Liberdade
TTITLE14=Elefante
TTITLE15=Cerveja
TTITLE16=Little Martha
EXTD=ID3G:   0
EXTT0=
EXTT1=
EXTT2=
EXTT3=
EXTT4=
EXTT5=
EXTT6=
EXTT7=
EXTT8=
EXTT9=
EXTT10=
EXTT11=
EXTT12=
EXTT13=
EXTT14=
EXTT15=
EXTT16=
PLAYORDER=
